<svg width="1336" height="246" viewBox="0 0 1336 246" fill="none" xmlns="http://www.w3.org/2000/svg">
<path d="M267.648 208.212L296.091 169.7C306.215 179.893 318.38 187.994 331.846 193.511C345.312 199.028 359.799 201.845 374.427 201.793C403.23 201.793 417.271 188.956 417.271 175.421C417.271 133.342 275.462 162.215 275.462 72.6463C275.462 33.0683 310.914 0.277344 368.883 0.277344C408.031 0.277344 440.53 11.6795 464.895 33.4173L435.73 70.4937C415.784 52.673 389.19 44.4704 364.082 44.4704C341.566 44.4704 328.992 54.1662 328.992 68.3607C328.992 106.155 470.439 80.8489 470.439 169.604C470.439 213.099 438.301 245.909 371.836 245.909C324.533 246.006 290.547 230.667 267.648 208.212Z" fill="#23281F"/>
<path d="M562.724 241.711V48.4754H490.715V3.875H687.178V48.4754H615.53V241.711H562.724Z" fill="#23281F"/>
<path d="M708.961 123C708.961 51.2516 763.194 0 837.513 0C912.032 0 966.265 51.3873 966.265 123C966.265 194.613 912.032 246 837.392 246C763.254 246 708.961 194.651 708.961 123ZM912.434 123C912.434 78.3996 882.887 44.93 837.472 44.93C792.057 44.93 762.872 78.4384 762.872 123C762.872 167.213 792.057 201.07 837.472 201.07C882.887 201.07 912.434 167.213 912.434 123Z" fill="#23281F"/>
<path d="M1181.24 241.723L1063.82 86.5916V241.723H1011.38V3.92578H1065.29L1179.4 153.24V3.92578H1231.84V241.723H1181.24Z" fill="#23281F"/>
<ellipse cx="1299.58" cy="206.241" rx="36.4213" ry="35.7097" fill="#93F224"/>
<path d="M89.5884 3.96484H138.15L49.1203 242.029H0.558594L89.5884 3.96484Z" fill="#23281F"/>
<path fill-rule="evenodd" clip-rule="evenodd" d="M113.848 3.96484H162.409L209.895 130.941H161.334L113.848 3.96484Z" fill="#23281F"/>
<path d="M48.2657 242.036C66.8238 220.213 94.7607 206.326 126.006 206.326C157.251 206.326 185.188 220.213 203.746 242.036H252.011C228.501 197.267 180.9 166.648 126.006 166.648C71.1112 166.648 23.5105 197.267 0 242.036H48.2657Z" fill="#23281F"/>
</svg>
